Coordinates
version=1
nRows=8
nColumns=36
inDegrees=yes

Units are S.I. units (second, meters, Newtons, ...)
If the header above contains a line with 'inDegrees', this indicates whether rotational values are in degrees (yes) or radians (no).

endheader
time	pelvis_tilt	pelvis_list	pelvis_rotation	pelvis_tx	pelvis_ty	pelvis_tz	hip_flexion_r	hip_adduction_r	hip_rotation_r	knee_angle_r	knee_angle_r_beta	ankle_angle_r	subtalar_angle_r	mtp_angle_r	hip_flexion_l	hip_adduction_l	hip_rotation_l	knee_angle_l	knee_angle_l_beta	ankle_angle_l	subtalar_angle_l	mtp_angle_l	lumbar_extension	lumbar_bending	lumbar_rotation	arm_flex_r	arm_add_r	arm_rot_r	elbow_flex_r	pro_sup_r	arm_flex_l	arm_add_l	arm_rot_l	elbow_flex_l	pro_sup_l
      0.00000000	     -3.61545839	     -2.43521122	     -4.15302305	     -0.34996373	      1.27214440	     -0.06987424	     -3.16797348	      2.95396938	     -2.66924246	      3.11431206	      0.05435500	      4.03715184	    -17.96412150	     -5.64591987	     -3.74649928	     -2.48222318	     -8.28683737	      4.72713087	      0.08250400	     13.48783462	     -6.17309661	     -5.64591987	     -6.17643223	      3.31875100	      1.54945722	      5.20095934	     -7.36891454	     10.74991970	     24.35487574	     75.97460051	     -1.15445766	     -7.46463633	     11.91114611	     32.17407792	     71.53694950
      0.01666670	     -4.96517645	     -1.74281022	     -4.88002657	     -0.34905120	      1.27051866	     -0.06989366	     -0.91606386	      2.53749846	     -2.57566183	      4.84194120	      0.08450782	      8.06128701	    -13.89893986	     -6.80045789	     -1.50992926	     -1.26486383	     -9.66907033	      5.57570966	      0.09731449	     14.63194478	     -5.09689986	     -6.80045789	     -4.39580023	      3.01290604	      2.10013651	      4.82068401	     -6.99598302	      7.27122793	     23.87083869	     82.96540515	     -1.53350771	     -6.74001901	      6.66149606	     31.69322646	     74.93025098
      0.03333330	     -5.08791557	     -1.04616557	     -5.36879643	     -0.34966638	      1.26598334	     -0.06891901	     -0.41929097	      1.64265738	     -3.45030243	      5.46509398	      0.09538388	      9.69302051	    -11.53866206	     -6.86874073	     -1.30608504	     -0.55938369	    -11.29607846	      5.90896651	      0.10313092	     15.40743715	     -4.38052628	     -6.86874073	     -4.24946386	      2.06685100	      2.73183855	      4.66762443	     -6.91335648	      7.67994069	     24.24349901	     82.63203830	     -1.05493006	     -7.90046423	      9.56005017	     32.08730250	     75.28059450
      0.05000000	     -4.66042424	     -0.96492031	     -5.57647144	     -0.35019399	      1.26835310	     -0.06879858	     -0.59414587	      1.30899666	     -3.50886172	      5.89369530	      0.10286439	     10.74220462	    -10.44708331	     -6.97338350	     -2.26082471	     -0.24269039	    -11.96149382	      5.32384182	      0.09291857	     15.15979606	     -4.50500020	     -6.97338350	     -4.78921527	      1.83385043	      3.17754469	      4.50048080	     -7.04674050	      8.52977906	     24.51541274	     82.00031490	     -0.63695579	     -8.73155466	     12.68486384	     32.31381539	     75.56765859
      0.06666670	     -4.15494516	     -1.04525126	     -5.76620072	     -0.35098596	      1.27244609	     -0.06874974	     -1.14474988	      1.27802324	     -3.44507530	      5.92003228	      0.10332406	     11.08667309	     -9.84665596	     -7.04566558	     -3.04453990	     -0.15910244	    -12.45127428	      5.01568296	      0.08754018	     15.00002104	     -4.59504012	     -7.04566558	     -5.47223642	      1.88831036	      3.40863514	      4.52304777	     -7.12678227	      8.76696180	     24.82547107	     80.48522958	     -0.42199352	     -8.85324303	     13.61217159	     32.70277986	     74.63857964
      0.08333330	     -3.93996822	     -1.06131004	     -5.84851635	     -0.35145550	      1.27321717	     -0.06873188	     -1.38001906	      1.26896797	     -3.61364571	      6.04804670	      0.10555833	     11.50670536	     -9.33082835	     -7.13223527	     -3.30246308	     -0.11296027	    -12.81860807	      4.84058253	      0.08448410	     14.97799026	     -4.42196634	     -7.13223527	     -5.58611866	      1.86483261	      3.94124594	      4.46839393	     -7.39804457	      9.99720854	     24.48018631	     80.77515234	      0.46252603	     -9.16846466	     17.24819180	     31.80233193	     75.95053950
      0.10000000	     -3.59004377	     -1.07222494	     -5.88619915	     -0.35176084	      1.27199567	     -0.06875557	     -1.71346178	      1.22016966	     -3.66350796	      6.16534371	      0.10760555	     11.59273571	     -9.29693673	     -7.16877257	     -3.57818292	     -0.10331862	    -12.95631623	      4.78262747	      0.08347260	     14.80159363	     -4.55088161	     -7.16877257	     -6.05525026	      1.80540909	      4.05191050	      4.51006318	     -7.41495845	      9.87871170	     24.63430483	     80.01096173	      0.66373738	     -9.07095458	     17.38634261	     32.01851442	     75.47662731
      0.11666670	     -3.40921789	     -0.97812308	     -6.06086962	     -0.35242682	      1.27477563	     -0.06847165	     -1.86092453	      1.10556393	     -3.59789885	      6.26668062	      0.10937421	     11.70422307	     -9.34115683	     -7.19534476	     -3.69352938	      0.02236608	    -13.08236025	      4.68182860	      0.08171332	     14.56395951	     -4.74221613	     -7.19534476	     -6.44181428	      1.67626019	      4.14299311	      4.72249928	     -7.40804586	      9.92458786	     24.55294078	     79.28456935	      0.84300736	     -9.04600406	     17.68714568	     32.15952003	     74.97276759
